<?xml version="1.0" encoding="utf-8"?>
<!-- Generator: Adobe Illustrator 26.3.1, SVG Export Plug-In . SVG Version: 6.00 Build 0)  -->
<svg version="1.1" id="Layer_1" xmlns="http://www.w3.org/2000/svg" xmlns:xlink="http://www.w3.org/1999/xlink" x="0px" y="0px"
	 viewBox="0 0 450.8 317" style="enable-background:new 0 0 450.8 317;" xml:space="preserve">
<style type="text/css">
	.st0{fill:#FFFFFF;}
	.st1{fill:none;stroke:#FFFFFF;stroke-miterlimit:10;}
	.st2{fill:none;stroke:#FFFFFF;stroke-width:0.25;stroke-miterlimit:10;}
</style>
<g id="Network_Sphere">
	<g>
		<path class="st0" d="M124.2,179.9l-15.9,19.3l10.9,19l-10.9,0.2l-6.2-11.5l-9.3,11.9L81.8,219l16.1-19.6l-10.8-18.7l10.9-0.2
			l6,11.4l9.2-11.7L124.2,179.9z"/>
		<path class="st0" d="M126.7,217.6l3.4-38.5l25-1.7l-0.7,8.2l-15.3,1.1l-0.6,6.8l13.1-0.9l-0.7,7.8l-13.1,0.9l-0.7,7.4l16.1-1.1
			l-0.7,8.2L126.7,217.6z"/>
		<path class="st0" d="M159.5,215.2l2.2-38.6l9.6-1l-1.8,30.3l13.7-1.4l-0.5,8.2L159.5,215.2z"/>
		<path class="st0" d="M189.3,212.1l1.2-38.6l24.8-3.1l-0.2,8.3l-15.2,1.9l-0.3,6.9l13-1.6l-0.2,7.8l-13,1.6l-0.2,7.4l16-2l-0.2,8.3
			L189.3,212.1z"/>
		<path class="st0" d="M237,206.1l-0.4,0.1l-18.9-36.2l10.5-1.6l4.8,9.9c1.5,3.4,3.1,6.6,3.9,9.3c0.6-1.4,3-7.7,4.2-10.5l4.9-11.4
			l10.5-1.6L237,206.1z"/>
		<path class="st0" d="M261,201.7l-0.9-38.6l24.6-4.5l0.2,8.3l-15.1,2.7l0.1,6.9l12.9-2.3l0.2,7.8l-12.9,2.3l0.2,7.4l15.8-2.9
			l0.2,8.3L261,201.7z"/>
		<path class="st0" d="M324.7,189.6l-20-13.3l-3.2-1.9l1.1,19.4l-9.3,2l-2.1-39.1l0.4-0.1l19.9,13.3c1.1,0.6,2.1,1.4,3.2,2
			l-1.1-19.4l9.3-2l2.1,39.1L324.7,189.6z"/>
	</g>
	<g>
		<path class="st1" d="M168,223.7l0.1,1.2c4.9-0.4,9.9-0.9,14.9-1.5l-0.1-1.2C177.9,222.7,172.9,223.2,168,223.7z"/>
		<path class="st1" d="M138.1,225.8l0.1,1.2c4.9-0.2,9.9-0.6,15-0.9l-0.1-1.2C148,225.3,143,225.6,138.1,225.8z"/>
		<path class="st1" d="M108.7,226.6h-0.6v1.2h0.6c4.7,0,9.5-0.1,14.4-0.2l0-1.2C118.2,226.5,113.3,226.6,108.7,226.6z"/>
		<path class="st1" d="M236.5,214.6c-3.1,0.5-6.1,1-9.1,1.5l0.2,1.2c3-0.5,6.1-1,9.1-1.5c1.9-0.3,3.8-0.7,5.7-1l-0.2-1.2
			C240.3,214,238.4,214.3,236.5,214.6z"/>
		<path class="st1" d="M197.8,220.4l0.2,1.2c4.9-0.6,9.9-1.3,14.9-2l-0.2-1.2C207.7,219.1,202.6,219.8,197.8,220.4z"/>
		<path class="st1" d="M20.1,212.6c3.5,2.4,8.1,4.6,13.7,6.5l0.4-1.2c-5.5-1.8-10-4-13.3-6.3L20.1,212.6z"/>
		<path class="st1" d="M78.1,226.8c4.8,0.3,9.8,0.6,15,0.8l0-1.2c-5.2-0.2-10.2-0.4-14.9-0.8L78.1,226.8z"/>
		<path class="st1" d="M28,175.6l0.8,1c3.5-2.7,7.7-5.5,12.5-8.2l-0.6-1.1C35.8,170.1,31.6,172.9,28,175.6z"/>
		<path class="st1" d="M17.1,186.1c-3.5,4.6-5.3,9.2-5.3,13.6v0.4l1.2,0v-0.4c0-4.2,1.7-8.5,5-12.9L17.1,186.1z"/>
		<path class="st1" d="M53.9,160.4l0.5,1.1c4.2-2,8.8-4.1,13.7-6.1l-0.5-1.1C62.8,156.3,58.2,158.3,53.9,160.4z"/>
		<path class="st1" d="M48.3,222.9c4.5,0.9,9.6,1.7,14.9,2.4l0.1-1.2c-5.3-0.7-10.2-1.5-14.8-2.4L48.3,222.9z"/>
		<path class="st1" d="M382.5,175.4c-3.3,1.3-6.7,2.6-10.1,3.9l0.4,1.2c3.4-1.3,6.7-2.6,10.1-4c1.1-0.6,2.3-1.3,3.7-2l-0.6-1.1
			C384.7,174.1,383.5,174.8,382.5,175.4z"/>
		<path class="st1" d="M406.5,106.4c5.4,1,10.2,2.3,14.4,3.7l0.4-1.2c-4.3-1.4-9.2-2.7-14.6-3.8L406.5,106.4z"/>
		<path class="st1" d="M256.9,210.9l0.2,1.2c5-1,9.9-2,14.7-3l-0.3-1.2C266.9,208.9,261.9,209.9,256.9,210.9z"/>
		<path class="st1" d="M424.1,149.4l0.7,1c4.7-3.5,8.6-6.7,11.6-9.6l-0.9-0.9C432.6,142.7,428.7,145.9,424.1,149.4z"/>
		<path class="st1" d="M444.1,127.5c-1.1-4.6-4.2-8.6-9.1-12l-0.7,1c4.6,3.2,7.5,7,8.6,11.3l0,0.1l1.2-0.2L444.1,127.5z"/>
		<path class="st1" d="M399.1,165.9l0.6,1.1c4.5-2.7,8.8-5.4,12.7-8l-0.7-1C407.8,160.5,403.5,163.2,399.1,165.9z"/>
		<path class="st1" d="M286.3,204.7l0.3,1.2c5-1.1,9.9-2.3,14.6-3.4l-0.3-1.2C296.1,202.5,291.2,203.6,286.3,204.7z"/>
		<path class="st1" d="M344.1,189.1l0.4,1.2c4.8-1.5,9.6-3.1,14.2-4.8l-0.4-1.2C353.6,186,348.9,187.6,344.1,189.1z"/>
		<path class="st1" d="M315.4,197.6l0.3,1.2c4.9-1.3,9.7-2.7,14.5-4.1l-0.3-1.2C325.1,194.9,320.2,196.3,315.4,197.6z"/>
		<polygon class="st0" points="392.9,114 372.4,102.3 396.6,96.9 		"/>
	</g>
	<circle class="st1" cx="225.3" cy="158.3" r="145.7"/>
</g>
<g id="Layer_2_00000054946957394431057230000002186891867265709705_">
	<circle class="st0" cx="124.3" cy="126.8" r="5.1"/>
	<circle class="st0" cx="183.3" cy="47.7" r="4.5"/>
	<circle class="st0" cx="229.3" cy="108.5" r="7"/>
	<circle class="st0" cx="284.8" cy="40.8" r="2.5"/>
	<circle class="st0" cx="334.5" cy="143.3" r="3.5"/>
	<circle class="st0" cx="291.5" cy="81.5" r="2.8"/>
	<circle class="st0" cx="179.4" cy="273.9" r="3.9"/>
	<circle class="st0" cx="255" cy="294.7" r="2.7"/>
	<circle class="st0" cx="272.2" cy="241.3" r="3.1"/>
	<circle class="st0" cx="310.6" cy="258.2" r="3.1"/>
	<circle class="st0" cx="331" cy="224.4" r="2.7"/>
	<polygon class="st2" points="124.3,127.9 183.3,47.7 229.3,108.5 	"/>
	<polygon class="st2" points="284.8,40.8 291.9,81.5 229.3,108.5 	"/>
	<line class="st2" x1="183.3" y1="46.3" x2="284.8" y2="40.8"/>
	<path class="st2" d="M125.1,126.8"/>
	<path class="st2" d="M183.3,47.7"/>
	<path class="st2" d="M307,76.1"/>
	<polygon class="st2" points="272.2,241.3 255,294.7 179.4,273.9 	"/>
	<polygon class="st2" points="310.6,258.2 272.2,241.3 331,224.4 	"/>
	<line class="st2" x1="255" y1="294.7" x2="310.6" y2="258.2"/>
	<polyline class="st2" points="179.4,273.9 191.8,227.8 272.2,241.3 296.5,215.4 331,224.4 	"/>
	<path class="st2" d="M255,294.7"/>
	<polyline class="st2" points="100.6,233.7 179.4,273.9 181.9,297.4 	"/>
	<path class="st2" d="M179.4,273.9"/>
	<line class="st2" x1="124.3" y1="126.8" x2="108.1" y2="73.6"/>
	<line class="st2" x1="255" y1="294.7" x2="256.9" y2="300.5"/>
	<path class="st2" d="M310.6,258.2"/>
	<path class="st2" d="M331,224.4"/>
	<line class="st2" x1="341.8" y1="70.8" x2="334.5" y2="143.3"/>
	<polyline class="st2" points="205.3,13.9 183.3,46.3 150.9,32.9 	"/>
	<polyline class="st2" points="242.4,13.9 284.8,40.8 306.2,37 	"/>
	<polyline class="st2" points="79.6,162.4 124.3,127.4 178.9,167.4 229.3,108.5 334.5,143.3 291.9,81.5 336.2,63.8 	"/>
	<line class="st2" x1="331" y1="221.7" x2="334.5" y2="143.3"/>
	<line class="st2" x1="313.8" y1="258.2" x2="324.2" y2="264.1"/>
	<line class="st2" x1="333.7" y1="224.4" x2="353.4" y2="227.8"/>
	<line class="st2" x1="332.7" y1="222.3" x2="367" y2="192.5"/>
	<line class="st2" x1="334.5" y1="143.3" x2="371" y2="158.3"/>
</g>
</svg>
