<?xml version="1.0" encoding="utf-8"?>
<!-- Generator: Adobe Illustrator 26.3.1, SVG Export Plug-In . SVG Version: 6.00 Build 0)  -->
<svg version="1.1" xmlns="http://www.w3.org/2000/svg" xmlns:xlink="http://www.w3.org/1999/xlink" x="0px" y="0px"
	 viewBox="0 0 450.8 450" style="enable-background:new 0 0 450.8 450;" xml:space="preserve">
<style type="text/css">
	.st0{fill:none;}
	.st1{fill:none;stroke:#000000;stroke-miterlimit:10;}
	.st2{fill:#1D1D1B;}
	.st3{fill:none;stroke:#1D1D1B;stroke-width:0.25;stroke-miterlimit:10;}
</style>
<g id="Network_Sphere">
	<path id="SVGID_x5F_1_x5F_" class="st0" d="M416.1,185.51c-2.77-17.83-87.59-19.45-189.44-3.63S44.48,224.99,47.25,242.82
		c2.77,17.83,87.59,19.45,189.44,3.63S418.87,203.34,416.1,185.51z"/>
	<text>	<textPath  xlink:href="#SVGID_x5F_1_x5F_" startOffset="83.8623%">
<tspan  style="font-family:'Brother-1816-ExtraBold-Italic'; font-size:43px;">XELEVEN</tspan>	</textPath>
</text>
	<g>
		<path d="M179.28,261.35l0.09,1c3.98-0.36,8.06-0.77,12.12-1.22l-0.11-0.99C187.33,260.58,183.25,260.99,179.28,261.35z"/>
		<path d="M155.02,263.07l0.05,1c3.97-0.2,8.06-0.45,12.16-0.74l-0.07-1C163.07,262.63,158.99,262.87,155.02,263.07z"/>
		<path d="M131.18,263.69l-0.46,0v1l0.46,0c3.8,0,7.74-0.05,11.72-0.16l-0.03-1C138.9,263.64,134.96,263.69,131.18,263.69z"/>
		<path d="M234.93,254.01c-2.48,0.42-4.95,0.83-7.41,1.23l0.16,0.99c2.46-0.4,4.93-0.8,7.42-1.23c1.54-0.27,3.07-0.54,4.59-0.82
			l-0.18-0.98C238,253.47,236.47,253.74,234.93,254.01z"/>
		<path d="M203.45,258.71l0.13,0.99c3.98-0.51,8.04-1.06,12.07-1.64l-0.14-0.99C211.48,257.65,207.42,258.2,203.45,258.71z"/>
		<path d="M59.26,252.37c2.82,1.97,6.55,3.74,11.08,5.27l0.32-0.95c-4.44-1.5-8.08-3.23-10.83-5.14L59.26,252.37z"/>
		<path d="M106.35,263.85c3.87,0.28,7.97,0.5,12.17,0.63l0.03-1c-4.19-0.14-8.28-0.35-12.13-0.63L106.35,263.85z"/>
		<path d="M65.69,222.36l0.61,0.79c2.88-2.2,6.28-4.43,10.12-6.65l-0.5-0.87C72.04,217.88,68.6,220.14,65.69,222.36z"/>
		<path d="M56.86,230.85c-2.85,3.73-4.29,7.45-4.29,11.06l0,0.32l1-0.03l0-0.29c0-3.38,1.37-6.9,4.09-10.45L56.86,230.85z"/>
		<path d="M86.74,209.98l0.43,0.9c3.44-1.65,7.18-3.31,11.11-4.95l-0.38-0.92C93.95,206.65,90.19,208.32,86.74,209.98z"/>
		<path d="M82.17,260.73c3.69,0.75,7.75,1.4,12.05,1.94l0.12-0.99c-4.28-0.54-8.31-1.18-11.98-1.92L82.17,260.73z"/>
		<path d="M353.32,222.15c-2.7,1.08-5.45,2.15-8.16,3.18l0.35,0.94c2.72-1.03,5.47-2.1,8.23-3.21c0.89-0.47,1.9-1.02,3-1.63
			l-0.48-0.88C355.16,221.15,354.16,221.7,353.32,222.15z"/>
		<path d="M372.86,166.19c4.35,0.85,8.29,1.86,11.71,3.02l0.32-0.95c-3.46-1.17-7.45-2.2-11.84-3.06L372.86,166.19z"/>
		<path d="M251.47,250.96l0.19,0.98c4.05-0.79,8.07-1.59,11.94-2.4l-0.21-0.98C259.53,249.37,255.51,250.17,251.47,250.96z"/>
		<path d="M387.08,201.04l0.6,0.8c3.82-2.84,6.99-5.47,9.42-7.82l-0.69-0.72C394,195.63,390.87,198.23,387.08,201.04z"/>
		<path d="M403.32,183.33c-0.92-3.7-3.4-6.98-7.37-9.76l-0.57,0.82c3.76,2.63,6.11,5.72,6.96,9.14l0.02,0.1l0.99-0.15L403.32,183.33
			z"/>
		<path d="M366.79,214.45l0.52,0.86c3.63-2.19,7.11-4.37,10.34-6.49l-0.55-0.84C373.89,210.09,370.42,212.26,366.79,214.45z"/>
		<path d="M275.27,245.98l0.22,0.98c4.03-0.91,8.01-1.85,11.85-2.79l-0.24-0.97C283.27,244.13,279.29,245.07,275.27,245.98z"/>
		<path d="M322.21,233.32l0.3,0.95c3.86-1.24,7.75-2.53,11.55-3.86l-0.33-0.94C329.94,230.8,326.06,232.09,322.21,233.32z"/>
		<path d="M298.88,240.17l0.26,0.97c3.95-1.06,7.89-2.17,11.73-3.29l-0.28-0.96C306.76,238.01,302.82,239.11,298.88,240.17z"/>
		<polygon points="361.77,172.32 345.16,162.84 364.81,158.47 		"/>
	</g>
	<circle class="st1" cx="225.8" cy="208.27" r="118.25"/>
</g>
<g id="Layer_2">
	<circle class="st2" cx="143.84" cy="182.73" r="4.12"/>
	<circle class="st2" cx="191.76" cy="118.57" r="3.63"/>
	<circle class="st2" cx="229.01" cy="167.92" r="5.65"/>
	<circle class="st2" cx="274.12" cy="112.92" r="2.02"/>
	<circle class="st2" cx="314.43" cy="196.13" r="2.82"/>
	<circle class="st2" cx="279.55" cy="145.98" r="2.29"/>
	<circle class="st2" cx="188.57" cy="302.08" r="3.19"/>
	<circle class="st2" cx="249.92" cy="319" r="2.19"/>
	<circle class="st2" cx="263.83" cy="275.63" r="2.55"/>
	<circle class="st2" cx="295.03" cy="289.35" r="2.55"/>
	<circle class="st2" cx="311.6" cy="261.93" r="2.18"/>
	<polygon class="st3" points="143.84,183.64 191.76,118.57 229.01,167.92 	"/>
	<polygon class="st3" points="274.12,112.92 279.86,145.98 229.01,167.92 	"/>
	<line class="st3" x1="191.76" y1="117.4" x2="274.12" y2="112.92"/>
	<path class="st3" d="M144.51,182.73"/>
	<path class="st3" d="M191.76,118.57"/>
	<path class="st3" d="M292.1,141.6"/>
	<polygon class="st3" points="263.83,275.63 249.92,319 188.57,302.08 	"/>
	<polygon class="st3" points="295.03,289.35 263.83,275.63 311.6,261.93 	"/>
	<line class="st3" x1="249.92" y1="319" x2="295.03" y2="289.35"/>
	<polyline class="st3" points="188.57,302.08 198.64,264.69 263.83,275.63 283.57,254.59 311.6,261.93 	"/>
	<path class="st3" d="M249.92,319"/>
	<polyline class="st3" points="124.6,269.47 188.57,302.08 190.58,321.19 	"/>
	<path class="st3" d="M188.57,302.08"/>
	<line class="st3" x1="143.84" y1="182.73" x2="130.71" y2="139.53"/>
	<line class="st3" x1="249.92" y1="319" x2="251.47" y2="323.72"/>
	<path class="st3" d="M295.03,289.35"/>
	<path class="st3" d="M311.6,261.93"/>
	<line class="st3" x1="320.35" y1="137.26" x2="314.43" y2="196.13"/>
	<polyline class="st3" points="209.55,91.13 191.76,117.4 165.47,106.55 	"/>
	<polyline class="st3" points="239.69,91.13 274.12,112.92 291.44,109.9 	"/>
	<polyline class="st3" points="107.59,211.64 143.84,183.26 188.13,215.65 229.01,167.92 314.43,196.13 279.86,145.98 
		315.83,131.61 	"/>
	<line class="st3" x1="311.6" y1="259.75" x2="314.43" y2="196.13"/>
	<line class="st3" x1="297.59" y1="289.35" x2="306.04" y2="294.15"/>
	<line class="st3" x1="313.78" y1="261.93" x2="329.74" y2="264.69"/>
	<line class="st3" x1="312.98" y1="260.26" x2="340.76" y2="236.05"/>
	<line class="st3" x1="314.43" y1="196.13" x2="344.05" y2="208.27"/>
</g>
</svg>
