<?xml version="1.0" standalone="no"?>
<!DOCTYPE svg PUBLIC "-//W3C//DTD SVG 20010904//EN"
 "http://www.w3.org/TR/2001/REC-SVG-20010904/DTD/svg10.dtd">
<svg version="1.0" xmlns="http://www.w3.org/2000/svg"
 width="431.000000pt" height="431.000000pt" viewBox="0 0 431.000000 431.000000"
 preserveAspectRatio="xMidYMid meet">
<metadata>
Created by potrace 1.14, written by Peter Selinger 2001-2017
</metadata>
<g transform="translate(0.000000,431.000000) scale(0.100000,-0.100000)"
fill="#000000" stroke="none">
<path d="M1498 3490 c-40 -40 -48 -54 -48 -85 0 -20 -4 -34 -8 -31 -5 3 -24 8
-43 11 -18 3 -36 8 -38 11 -3 2 -29 -19 -58 -48 l-53 -52 0 -134 0 -134 -27 6
c-16 3 -37 8 -48 11 -15 4 -34 -8 -73 -46 l-52 -52 2 -900 3 -900 270 -72
c149 -39 282 -75 296 -78 23 -6 34 1 78 45 l51 51 0 334 c0 200 4 333 9 333 5
0 21 -4 36 -10 14 -5 36 -12 48 -14 12 -2 65 -16 117 -30 52 -14 163 -44 245
-66 83 -22 170 -45 195 -53 l45 -13 3 -401 2 -401 48 -11 c26 -6 160 -42 299
-79 l252 -69 50 51 51 52 0 901 0 901 -47 11 c-27 7 -72 19 -100 27 l-53 15 0
199 0 198 -32 10 c-18 6 -63 18 -100 28 l-68 17 0 101 0 101 -238 62 c-130 35
-396 106 -591 158 -194 52 -359 95 -365 94 -6 0 -32 -22 -58 -49z m362 -758
c41 -11 187 -50 324 -87 137 -36 253 -68 258 -71 4 -3 8 -65 8 -138 l0 -132
-347 93 c-192 51 -349 93 -350 93 -2 0 -3 61 -3 136 0 125 1 136 18 131 9 -2
51 -14 92 -25z"/>
</g>
</svg>
